<svg width="77" height="72" viewBox="0 0 77 72" fill="none" xmlns="http://www.w3.org/2000/svg">
<path d="M0 12.8481H12.5615C15.1105 12.8481 17.3813 14.4587 18.2241 16.8643L29.0686 47.8192C29.9114 50.2249 32.1822 51.8355 34.7312 51.8355H70" stroke="#58391C" stroke-width="7"/>
<ellipse cx="35.1707" cy="65.5696" rx="5.97561" ry="6.20253" fill="#58391C"/>
<ellipse cx="61.6341" cy="65.5696" rx="5.97561" ry="6.20253" fill="#58391C"/>
<path d="M73.7381 18.806H18.5808C17.8465 18.806 17.3626 19.5709 17.6772 20.2344L27.6259 41.2194C27.7914 41.5685 28.1432 41.791 28.5295 41.791H68.8119C69.2762 41.791 69.6794 41.4715 69.7855 41.0196L74.7116 20.0345C74.8589 19.4069 74.3827 18.806 73.7381 18.806Z" fill="#58391C"/>
</svg>
