<svg width="278" height="73" viewBox="0 0 278 73" fill="none" xmlns="http://www.w3.org/2000/svg">
<rect x="217.494" y="14" width="71.7702" height="12" rx="6" transform="rotate(32.7647 217.494 14)" fill="#E6BB24"/>
<rect x="218.604" y="17.9081" width="5" height="10" rx="2.5" transform="rotate(5.77622 218.604 17.9081)" fill="#F9D451"/>
<rect x="226.166" y="22.7753" width="5" height="10" rx="2.5" transform="rotate(5.77622 226.166 22.7753)" fill="#F9D451"/>
<rect x="233.729" y="27.6425" width="5" height="10" rx="2.5" transform="rotate(5.77622 233.729 27.6425)" fill="#F9D451"/>
<rect x="241.292" y="32.5098" width="5" height="10" rx="2.5" transform="rotate(5.77622 241.292 32.5098)" fill="#F9D451"/>
<rect x="248.855" y="37.377" width="5" height="10" rx="2.5" transform="rotate(5.77622 248.855 37.377)" fill="#F9D451"/>
<rect x="256.417" y="42.2443" width="5" height="10" rx="2.5" transform="rotate(5.77622 256.417 42.2443)" fill="#F9D451"/>
<rect x="176.95" y="34.0909" width="11.1" height="32.9092" fill="#43A05D"/>
<ellipse cx="174.175" cy="35.9191" rx="10.175" ry="10.9697" fill="#3E6A4B"/>
<ellipse cx="181.336" cy="26.9697" rx="10.175" ry="10.9697" fill="#3E6A4B"/>
<ellipse cx="190.825" cy="35.9191" rx="10.175" ry="10.9697" fill="#3E6A4B"/>
<ellipse cx="102.758" cy="42.6393" rx="24.7095" ry="24.7095" transform="rotate(-0.072924 102.758 42.6393)" fill="#DF3636"/>
<circle cx="123.35" cy="42.6131" r="24.7095" transform="rotate(-0.072924 123.35 42.6131)" fill="#DF3636"/>
<path d="M148.062 44.6408C148.066 48.1561 147.165 51.6381 145.41 54.888C143.655 58.138 141.081 61.0922 137.833 63.5821C134.586 66.0719 130.729 68.0486 126.484 69.3992C122.239 70.7499 117.688 71.4481 113.091 71.4539C108.494 71.4598 103.941 70.7732 99.6923 69.4333C95.4436 68.0935 91.5822 66.1266 88.3285 63.6451C85.0748 61.1635 82.4926 58.2158 80.7293 54.9704C78.966 51.7249 78.0561 48.2452 78.0516 44.7299L113.057 44.6853L148.062 44.6408Z" fill="#DF3636"/>
<path d="M110.974 26.1558V26.1558C114.579 18.3157 121.454 12.461 129.768 10.1503L131.544 9.6566" stroke="#327641"/>
<path d="M111.382 28.2145L111.377 24.596C111.37 19.0023 109.141 13.6406 105.181 9.6903V9.6903" stroke="#327641"/>
<path d="M38 21H32L32.6011 18.9391C34.5064 12.4066 37.9365 6.4202 42.6087 1.47311C43.4179 0.616392 44.719 0.449354 45.7183 1.0739L46.6219 1.63869C47.3426 2.0891 47.485 3.07946 46.9204 3.71462L44.7637 6.14085C41.642 9.65275 39.4908 13.9185 38.5229 18.5165L38 21Z" fill="#A0531B" stroke="black"/>
<path d="M37.5283 18.8145L35 20.5C29.1414 16.1832 21.396 15.4018 14.7933 18.4616L12.2091 19.6592C7.66545 21.7648 4.36271 25.8678 3.27636 30.7564L2.91232 32.3946C1.00455 40.9795 1.39446 49.9158 4.04272 58.302C5.28626 62.2398 8.17274 65.4471 11.9583 67.0972L14.417 68.169C21.2404 71.1433 29.1577 70.1123 35 65.5C41.252 69.9657 49.6763 69.8678 55.8228 65.2579L58.1378 63.5217C59.0353 62.8485 59.7762 61.989 60.3097 61.0021C66.1172 50.2582 66.7145 37.454 61.9324 26.2162L60.7873 23.5253C59.9563 21.5724 58.4576 19.9788 56.5593 19.0297L54.0694 17.7847C48.7703 15.1351 42.4578 15.5281 37.5283 18.8145Z" fill="#DC2121" stroke="black"/>
<path d="M37.5283 18.8145L35 20.5H42.9344C46.1778 20.5 49.2885 21.7885 51.5819 24.0819C59.3683 31.8683 62.8829 42.9542 61.005 53.8045L59.5 62.5C65.8191 50.8096 66.4691 36.8773 61.2657 24.6494L60.7873 23.5253C59.9563 21.5724 58.4576 19.9788 56.5593 19.0297L54.0694 17.7847C48.7703 15.1351 42.4578 15.5281 37.5283 18.8145Z" fill="#61E44C" stroke="black"/>
</svg>
