<svg width="107" height="105" viewBox="0 0 107 105" fill="none" xmlns="http://www.w3.org/2000/svg">
<path d="M6.29412 57.65C6.29412 56.5454 7.18955 55.65 8.29412 55.65H105C106.105 55.65 107 56.5454 107 57.65V65.55C107 82.1185 93.5685 95.55 77 95.55H36.2941C19.7256 95.55 6.29412 82.1185 6.29412 65.55V57.65Z" fill="#E27802"/>
<rect x="52.451" y="13.65" width="8.39215" height="52.5" rx="2" fill="#E27802"/>
<path d="M4.19608 54.5C4.19608 53.3954 5.09151 52.5 6.19608 52.5H102.902C104.007 52.5 104.902 53.3954 104.902 54.5V62.4C104.902 78.9686 91.4705 92.4 74.902 92.4H34.1961C17.6276 92.4 4.19608 78.9685 4.19608 62.4V54.5Z" fill="#F88F01"/>
<rect x="50.3529" y="10.5" width="8.39216" height="52.5" rx="2" fill="#F88F01"/>
<mask id="mask0" mask-type="alpha" maskUnits="userSpaceOnUse" x="0" y="12" width="103" height="41">
<rect y="12.6" width="102.804" height="39.9" fill="#C4C4C4"/>
</mask>
<g mask="url(#mask0)">
<rect width="7.45629" height="22.3752" transform="matrix(0.957253 0.289251 -0.288577 0.957457 79.8202 41.5921)" fill="#43A05D"/>
<ellipse rx="6.83377" ry="7.45761" transform="matrix(0.957247 0.289272 -0.288556 0.957463 77.6803 42.2435)" fill="#3E6A4B"/>
<ellipse rx="6.83377" ry="7.45761" transform="matrix(0.957247 0.289272 -0.288557 0.957463 84.0401 37.8077)" fill="#3E6A4B"/>
<ellipse rx="6.83377" ry="7.45761" transform="matrix(0.957247 0.289272 -0.288557 0.957463 88.3827 45.4763)" fill="#3E6A4B"/>
<ellipse rx="6.22673" ry="6.22999" transform="matrix(0.979737 -0.200288 0.199711 0.979855 64.6908 55.9178)" fill="#DF3636"/>
<ellipse rx="6.22673" ry="6.22999" transform="matrix(0.979737 -0.200288 0.199711 0.979855 69.7738 54.8792)" fill="#DF3636"/>
<path d="M65.8938 51.4323V51.4323C66.3917 49.3138 67.7961 47.5221 69.7335 46.5339L70.147 46.323" stroke="#327641"/>
<path d="M66.0973 51.9205L65.915 51.0257C65.6335 49.644 64.8149 48.4307 63.6394 47.653V47.653" stroke="#327641"/>
<rect width="75.3128" height="12.5925" rx="6.29627" transform="matrix(0.84066 0.541564 -0.540817 0.84114 6.81023 29.4)" fill="#E6BB24"/>
<rect x="8.0345" y="33.4104" width="5.00038" height="9.99925" rx="2.50107" transform="matrix(0.994915 0.100572 -0.100715 0.99493 3.40578 -0.638648)" fill="#F9D451"/>
<rect x="15.5926" y="38.2794" width="5.00038" height="9.99925" rx="2.50107" transform="matrix(0.994915 0.100572 -0.100715 0.99493 3.93459 -1.37409)" fill="#F9D451"/>
<rect x="23.1507" y="43.1484" width="5.00038" height="9.99925" rx="2.50107" transform="matrix(0.994915 0.100572 -0.100715 0.99493 4.46341 -2.10954)" fill="#F9D451"/>
<rect x="30.7087" y="48.0174" width="5.00038" height="9.99925" rx="2.50107" transform="matrix(0.994915 0.100572 -0.100715 0.99493 4.99222 -2.84498)" fill="#F9D451"/>
</g>
</svg>
