<svg width="70" height="73" viewBox="0 0 70 73" fill="none" xmlns="http://www.w3.org/2000/svg">
<path d="M38 21H32L32.6011 18.9391C34.5064 12.4066 37.9365 6.4202 42.6087 1.47311C43.4179 0.616392 44.719 0.449354 45.7183 1.0739L46.6219 1.63869C47.3426 2.0891 47.485 3.07946 46.9204 3.71462L44.7637 6.14085C41.642 9.65275 39.4908 13.9185 38.5229 18.5165L38 21Z" fill="#A0531B" stroke="black"/>
<path d="M37.5283 18.8145L35 20.5C29.1414 16.1832 21.396 15.4018 14.7933 18.4616L12.2091 19.6592C7.66545 21.7648 4.36271 25.8678 3.27636 30.7564L2.91232 32.3946C1.00455 40.9795 1.39446 49.9158 4.04272 58.302C5.28626 62.2398 8.17274 65.4471 11.9583 67.0972L14.417 68.169C21.2404 71.1433 29.1577 70.1123 35 65.5C41.252 69.9657 49.6763 69.8678 55.8228 65.2579L58.1378 63.5217C59.0353 62.8485 59.7762 61.989 60.3097 61.0021C66.1172 50.2582 66.7145 37.454 61.9324 26.2162L60.7873 23.5253C59.9563 21.5724 58.4576 19.9788 56.5593 19.0297L54.0694 17.7847C48.7703 15.1351 42.4578 15.5281 37.5283 18.8145Z" fill="#DC2121" stroke="black"/>
<path d="M37.5283 18.8145L35 20.5H42.9344C46.1778 20.5 49.2885 21.7885 51.5819 24.0819C59.3683 31.8683 62.8829 42.9542 61.005 53.8045L59.5 62.5C65.8191 50.8096 66.4691 36.8773 61.2657 24.6494L60.7873 23.5253C59.9563 21.5724 58.4576 19.9788 56.5593 19.0297L54.0694 17.7847C48.7703 15.1351 42.4578 15.5281 37.5283 18.8145Z" fill="#61E44C" stroke="black"/>
</svg>
