<svg width="59" height="59" viewBox="0 0 59 59" fill="none" xmlns="http://www.w3.org/2000/svg">
<path fill-rule="evenodd" clip-rule="evenodd" d="M22.0504 44.1007C34.2285 44.1007 44.1008 34.2285 44.1008 22.0504C44.1008 9.87229 34.2285 0 22.0504 0C9.87229 0 0 9.87229 0 22.0504C0 34.2285 9.87229 44.1007 22.0504 44.1007ZM22.0504 34.3986C28.8701 34.3986 34.3986 28.8701 34.3986 22.0504C34.3986 15.2306 28.8701 9.70216 22.0504 9.70216C15.2306 9.70216 9.70217 15.2306 9.70217 22.0504C9.70217 28.8701 15.2306 34.3986 22.0504 34.3986Z" fill="#58391C"/>
<rect x="38.6066" y="30.8705" width="28.8406" height="10.9405" transform="rotate(45 38.6066 30.8705)" fill="#58391C"/>
</svg>
