<svg width="84" height="84" viewBox="0 0 84 84" fill="none" xmlns="http://www.w3.org/2000/svg">
<rect x="5.5" y="23.5" width="72" height="48" fill="white" stroke="#58391C"/>
<path d="M12 27C12 30.0376 9.31371 32.5 6 32.5C2.68629 32.5 0 30.0376 0 27C2.5 27 2.68629 27 6 27C9.31371 27 8 27 12 27Z" fill="#F88F01"/>
<path d="M24 27C24 30.0376 21.3137 32.5 18 32.5C14.6863 32.5 12 30.0376 12 27C14.5 27 14.6863 27 18 27C21.3137 27 20 27 24 27Z" fill="#6A492B"/>
<path d="M36 27C36 30.0376 33.3137 32.5 30 32.5C26.6863 32.5 24 30.0376 24 27C26.5 27 26.6863 27 30 27C33.3137 27 32 27 36 27Z" fill="#F88F01"/>
<path d="M48 27C48 30.0376 45.3137 32.5 42 32.5C38.6863 32.5 36 30.0376 36 27C38.5 27 38.6863 27 42 27C45.3137 27 44 27 48 27Z" fill="#6A492B"/>
<path d="M60 27C60 30.0376 57.3137 32.5 54 32.5C50.6863 32.5 48 30.0376 48 27C50.5 27 50.6863 27 54 27C57.3137 27 56 27 60 27Z" fill="#F88F01"/>
<path d="M72 27C72 30.0376 69.3137 32.5 66 32.5C62.6863 32.5 60 30.0376 60 27C62.5 27 62.6863 27 66 27C69.3137 27 68 27 72 27Z" fill="#6A492B"/>
<path d="M84 27C84 30.0376 81.3137 32.5 78 32.5C74.6863 32.5 72 30.0376 72 27C74.5 27 74.6863 27 78 27C81.3137 27 80 27 84 27Z" fill="#F88F01"/>
<path d="M18.5 13L12 27H0L8.5 13H18.5Z" fill="#F88F01"/>
<path d="M76.5 13L84 27H72L67.5 13H76.5Z" fill="#F88F01"/>
<path d="M37 13L36 27H24L27.5 13H37Z" fill="#F88F01"/>
<path d="M57.5 13L60 27H48L47 13H57.5Z" fill="#F88F01"/>
<path d="M27.5 13L24 27H12L18.5 13H27.5Z" fill="#6A492B"/>
<path d="M47 13L48 27H36L37 13H47Z" fill="#6A492B"/>
<path d="M67.5 13L72 27H60L57.5 13H67.5Z" fill="#6A492B"/>
<rect x="54" y="38" width="18" height="33" fill="#6A492B"/>
<rect x="66" y="54" width="5" height="2" rx="1" fill="#F88F01"/>
<rect x="11" y="38" width="32" height="22" fill="#6199CD"/>
</svg>
