<svg width="29" height="32" viewBox="0 0 29 32" fill="none" xmlns="http://www.w3.org/2000/svg">
<path fill-rule="evenodd" clip-rule="evenodd" d="M11.39 23.5616C17.1442 23.5616 21.8089 18.4488 21.8089 12.1419C21.8089 5.83499 17.1442 0.722221 11.39 0.722221C5.63578 0.722221 0.971069 5.83499 0.971069 12.1419C0.971069 18.4488 5.63578 23.5616 11.39 23.5616ZM11.39 18.5369C14.6123 18.5369 17.2246 15.6738 17.2246 12.1419C17.2246 8.61003 14.6123 5.74688 11.39 5.74688C8.16762 5.74688 5.55539 8.61003 5.55539 12.1419C5.55539 15.6738 8.16762 18.5369 11.39 18.5369Z" fill="#58391C"/>
<rect width="14.2968" height="5.4234" transform="matrix(0.673996 0.738735 -0.673996 0.738735 19.2129 16.7098)" fill="#58391C"/>
</svg>
